<?xml version="1.0" encoding="UTF-8"?>
<svg width="240px" height="240px" viewBox="0 0 240 240" version="1.1" xmlns="http://www.w3.org/2000/svg" xmlns:xlink="http://www.w3.org/1999/xlink">
    <!-- Generator: Sketch 61.2 (89653) - https://sketch.com -->
    <title>trade</title>
    <desc>Created with Sketch.</desc>
    <g id="trade" stroke="none" stroke-width="1" fill="none" fill-rule="evenodd">
        <g id="bounding-box">
            <polygon id="shape" points="0 0 240 0 240 240 0 240"></polygon>
        </g>
        <rect id="Rectangle" stroke="#46AAF7" stroke-width="10" fill="#E8F7FF" x="175" y="70" width="20" height="35" rx="8"></rect>
        <rect id="line" fill="#46AAF7" x="60" y="150" width="10" height="20"></rect>
        <rect id="line-copy" fill="#46AAF7" x="100" y="40" width="10" height="20"></rect>
        <rect id="line-copy-2" fill="#46AAF7" x="100" y="180" width="10" height="20"></rect>
        <rect id="line-copy-3" fill="#46AAF7" x="140" y="60" width="10" height="20"></rect>
        <rect id="line-copy-4" fill="#46AAF7" x="140" y="155" width="10" height="20"></rect>
        <rect id="line-copy-5" fill="#46AAF7" x="180" y="45" width="10" height="20"></rect>
        <rect id="line-copy-6" fill="#46AAF7" x="180" y="110" width="10" height="20"></rect>
        <rect id="line" fill="#46AAF7" x="60" y="210" width="10" height="20"></rect>
        <rect id="Rectangle-Copy" stroke="#46AAF7" stroke-width="10" fill="#E8F7FF" x="135" y="85" width="20" height="65" rx="8"></rect>
        <rect id="Rectangle-Copy-2" stroke="#46AAF7" stroke-width="10" fill="#E8F7FF" x="95" y="65" width="20" height="110" rx="8"></rect>
        <rect id="Rectangle-Copy-3" stroke="#46AAF7" stroke-width="10" fill="#E8F7FF" x="55" y="173" width="20" height="32" rx="8"></rect>
    </g>
</svg>